<?xml version="1.0" encoding="UTF-8"?>
<svg xmlns="http://www.w3.org/2000/svg" xmlns:xlink="http://www.w3.org/1999/xlink" width="24pt" height="24pt" viewBox="0 0 24 24" version="1.1">
<g id="surface21545277">
<path style=" stroke:none;fill-rule:nonzero;fill:rgb(255.588235%,255.803922%,255.529412%);fill-opacity:1;" d="M 3 5 C 2.640625 4.996094 2.304688 5.183594 2.121094 5.496094 C 1.941406 5.808594 1.941406 6.191406 2.121094 6.503906 C 2.304688 6.816406 2.640625 7.003906 3 7 L 21 7 C 21.359375 7.003906 21.695312 6.816406 21.878906 6.503906 C 22.058594 6.191406 22.058594 5.808594 21.878906 5.496094 C 21.695312 5.183594 21.359375 4.996094 21 5 Z M 3 11 C 2.640625 10.996094 2.304688 11.183594 2.121094 11.496094 C 1.941406 11.808594 1.941406 12.191406 2.121094 12.503906 C 2.304688 12.816406 2.640625 13.003906 3 13 L 21 13 C 21.359375 13.003906 21.695312 12.816406 21.878906 12.503906 C 22.058594 12.191406 22.058594 11.808594 21.878906 11.496094 C 21.695312 11.183594 21.359375 10.996094 21 11 Z M 3 17 C 2.640625 16.996094 2.304688 17.183594 2.121094 17.496094 C 1.941406 17.808594 1.941406 18.191406 2.121094 18.503906 C 2.304688 18.816406 2.640625 19.003906 3 19 L 21 19 C 21.359375 19.003906 21.695312 18.816406 21.878906 18.503906 C 22.058594 18.191406 22.058594 17.808594 21.878906 17.496094 C 21.695312 17.183594 21.359375 16.996094 21 17 Z M 3 17 "/>
</g>
</svg>
