<?xml version="1.0" encoding="UTF-8" standalone="no"?><!DOCTYPE svg PUBLIC "-//W3C//DTD SVG 1.1//EN" "http://www.w3.org/Graphics/SVG/1.1/DTD/svg11.dtd"><svg width="100%" height="100%" viewBox="0 0 1099 798" version="1.1" xmlns="http://www.w3.org/2000/svg" xmlns:xlink="http://www.w3.org/1999/xlink" xml:space="preserve" xmlns:serif="http://www.serif.com/" style="fill-rule:evenodd;clip-rule:evenodd;stroke-miterlimit:10;"><ellipse cx="148" cy="774" rx="148" ry="23.68" style="fill:#f2f2f2;"/><path d="M819.12,384.785c0,0 1.95,6.498 -9.098,12.347c-11.048,5.849 -14.297,27.945 -1.3,34.444c12.998,6.499 16.897,14.947 10.398,20.796c-6.498,5.849 -18.196,21.446 -2.599,25.345c15.597,3.899 17.546,11.698 12.997,14.947c-4.549,3.25 10.398,-5.849 10.398,-5.849c0,0 2.6,15.597 16.247,11.698c13.648,-3.899 51.99,-77.985 32.494,-88.383c-19.496,-10.398 -69.537,-25.345 -69.537,-25.345Z" style="fill:#2f2e41;fill-rule:nonzero;"/><path d="M842.675,447.537c0,0 6.741,23.594 -5.056,25.279c-7.32,1.141 -14.259,4.032 -20.223,8.427l21.908,28.65l40.448,0l25.279,-25.28c0,0 -33.706,-25.279 -26.965,-40.447c6.742,-15.167 -35.391,3.371 -35.391,3.371Z" style="fill:#ffb9b9;fill-rule:nonzero;"/><path d="M842.675,447.537c0,0 6.741,23.594 -5.056,25.279c-7.32,1.141 -14.259,4.032 -20.223,8.427l21.908,28.65l40.448,0l25.279,-25.28c0,0 -33.706,-25.279 -26.965,-40.447c6.742,-15.167 -35.391,3.371 -35.391,3.371Z" style="fill-opacity:0.1;fill-rule:nonzero;"/><path d="M852.787,740.779l38.762,13.482l26.964,1.685l-1.685,-23.594l-55.615,-16.448l-8.426,24.875Z" style="fill:#ffb9b9;fill-rule:nonzero;"/><path d="M902.503,735.723c0,0 0,23.594 3.371,23.594c3.37,0 48.873,-5.056 62.356,0c13.482,5.056 33.706,-13.483 23.594,-23.594c-10.112,-10.112 -26.606,-25.28 -36.897,-21.909c-10.291,3.37 -52.424,11.797 -52.424,11.797l0,10.112Z" style="fill:#575a89;fill-rule:nonzero;"/><path d="M778.634,713.814c0,0 -20.224,40.447 -6.741,43.818c13.482,3.37 28.65,-1.686 30.335,-3.371c1.685,-1.685 25.279,-8.427 28.65,-5.056c3.37,3.371 3.371,-13.482 3.371,-13.482l-55.615,-21.909Z" style="fill:#575a89;fill-rule:nonzero;"/><path d="M795.487,658.199c0,0 -32.021,43.818 -8.427,55.615c23.594,11.797 136.509,11.797 144.936,0c8.426,-11.797 11.797,-48.874 0,-52.244c-11.797,-3.371 -136.509,-3.371 -136.509,-3.371Z" style="fill:#2f2e41;fill-rule:nonzero;"/><path d="M795.487,658.199c0,0 -32.021,43.818 -8.427,55.615c23.594,11.797 136.509,11.797 144.936,0c8.426,-11.797 11.797,-48.874 0,-52.244c-11.797,-3.371 -136.509,-3.371 -136.509,-3.371Z" style="fill-opacity:0.2;fill-rule:nonzero;"/><circle cx="856.157" cy="420.572" r="38.762" style="fill:#ffb9b9;"/><path d="M795.487,481.243l33.706,-6.741c0,0 8.426,26.964 35.391,21.909c26.965,-5.056 33.706,-21.909 33.706,-21.909c0,0 20.223,8.426 21.909,8.426c1.685,0 23.594,8.427 23.594,13.483c0,5.055 -25.28,55.614 -25.28,55.614l3.371,91.006l-124.712,-3.37l8.427,-89.321l-10.112,-69.097Z" style="fill:#ef233c;fill-rule:nonzero;"/><path d="M776.949,525.061c0,0 -10.112,89.32 -3.371,96.061c6.741,6.742 33.706,25.28 33.706,25.28l0,-20.224l-13.483,-25.279l13.483,-58.985l-30.335,-16.853Z" style="fill:#ffb9b9;fill-rule:nonzero;"/><path d="M951.377,522.533c0,0 -5.899,91.848 -5.899,95.219c0,3.37 -15.167,15.168 -20.223,15.168c-5.056,0 -8.427,-8.427 -8.427,-8.427l11.797,-13.482l-8.426,-69.097l31.178,-19.381Z" style="fill:#ffb9b9;fill-rule:nonzero;"/><path d="M935.366,651.458c0,0 75.839,-42.133 77.524,0c1.685,42.132 -38.762,58.985 -38.762,58.985c0,0 -104.488,31.332 -108.701,19.879c-4.214,-11.452 -12.64,-29.991 -5.899,-31.676c6.741,-1.685 15.168,-5.056 18.538,-1.685c3.371,3.37 45.503,-25.28 45.503,-25.28l11.797,-20.223Z" style="fill:#2f2e41;fill-rule:nonzero;"/><path d="M970.758,646.402c0,0 -15.168,6.741 -20.224,11.797c-5.056,5.056 -26.965,13.482 -26.965,13.482" style="fill:none;fill-rule:nonzero;stroke:#000;stroke-opacity:0.2;stroke-width:2px;"/><path d="M805.599,484.613l-10.112,-3.37c0,0 -37.077,38.762 -25.28,48.873c11.797,10.112 18.539,13.483 21.909,16.853c3.371,3.371 20.224,5.056 20.224,5.056l-6.741,-67.412Z" style="fill:#ef233c;fill-rule:nonzero;"/><path d="M928.625,493.04l15.168,3.371c0,0 11.797,25.279 15.168,28.65c3.37,3.37 -5.056,1.685 -10.112,8.426c-5.056,6.741 -10.112,18.538 -20.224,18.538c-10.112,0 -23.594,-16.853 -23.594,-16.853l23.594,-42.132Z" style="fill:#ef233c;fill-rule:nonzero;"/><path d="M798.857,666.625c0,0 -64.041,-45.503 -85.95,-11.797c-21.909,33.706 94.377,79.209 111.23,85.951c16.853,6.741 32.02,13.482 32.02,13.482c0,0 15.168,-37.077 15.168,-43.818c0,-6.741 -11.797,-6.741 -15.168,-6.741c-3.37,0 -18.538,-3.371 -21.908,-8.426c-3.371,-5.056 -35.392,-28.651 -35.392,-28.651Z" style="fill:#2f2e41;fill-rule:nonzero;"/><path d="M763.466,654.828c0,0 16.853,13.483 32.021,16.853c15.167,3.371 20.223,11.797 20.223,11.797" style="fill:none;fill-rule:nonzero;stroke:#000;stroke-opacity:0.2;stroke-width:2px;"/><path d="M787.232,591.462l1.346,71.356c0.092,4.874 4.158,8.819 9.032,8.764l132.79,-1.492c4.668,-0.053 8.548,-3.757 8.817,-8.418l4.031,-69.864c0.01,-0.171 0.015,-0.343 0.015,-0.515c0,-4.9 -4.033,-8.932 -8.933,-8.932l-138.167,0c0,0 0,0 0,0c-4.9,0 -8.933,4.032 -8.933,8.932c0,0.057 0.001,0.113 0.002,0.169Z" style="fill:#575a89;fill-rule:nonzero;"/><path d="M858.228,371.88c0,0 2.16,7.199 -10.079,13.679c-12.239,6.479 -15.838,30.957 -1.44,38.156c14.399,7.199 18.719,16.559 11.519,23.038c-7.199,6.479 -20.158,23.758 -2.879,28.077c17.278,4.32 19.438,12.959 14.398,16.559c-5.039,3.6 11.519,-6.48 11.519,-6.48c0,0 2.88,17.279 17.999,12.959c15.118,-4.319 30.203,-82.84 13.35,-103.063c-15.67,-18.805 -54.387,-22.925 -54.387,-22.925Z" style="fill:#2f2e41;fill-rule:nonzero;"/><path d="M853.63,364.469c0.003,-10.547 31.558,-2.968 45.088,11.758c9.368,10.198 23.598,25.541 11.674,36.356c-11.924,10.814 20.439,24.992 29.119,29.29c8.68,4.298 25.817,17.443 10.343,26.261c-15.474,8.818 -15.224,17.72 -9.401,19.828c5.824,2.107 -12.839,-3.134 -12.839,-3.134c0,0 1.885,17.415 -13.838,17.332c-15.723,-0.084 -60.832,-86.495 -50.056,-110.513c10.02,-22.333 -10.09,-27.178 -10.09,-27.178Z" style="fill:#2f2e41;fill-rule:nonzero;"/><path d="M860.465,362.158c-42.198,-2.541 -46.433,29.223 -46.433,29.223c0.291,18.382 29.482,9.425 37.59,12.165c9.781,-7.036 28.636,-20.35 42.12,-29.851c-9.789,-6.893 -21.323,-10.891 -33.277,-11.537Z" style="fill:#2f2e41;fill-rule:nonzero;"/><path d="M848.442,564.849c0,0 -37.852,-177.4 -274.773,-306.089" style="fill:none;fill-rule:nonzero;stroke:#3f3d56;stroke-width:2px;"/><path d="M583.431,254.891l0.474,1.945l-9.583,2.324l3.019,9.389l-1.906,0.611l-3.675,-11.436l11.671,-2.833Z" style="fill:#3f3d56;fill-rule:nonzero;"/><path d="M68.473,746.111c0,22.469 -13.356,30.314 -29.834,30.314c-0.381,0 -0.762,-0.004 -1.143,-0.012c-0.763,-0.017 -1.519,-0.053 -2.267,-0.104c-14.87,-1.053 -26.423,-9.301 -26.423,-30.198c0,-21.625 27.634,-48.912 29.71,-50.931l0.003,-0.004c0.08,-0.078 0.12,-0.116 0.12,-0.116c0,0 29.834,28.583 29.834,51.051Z" style="fill:#ef233c;fill-rule:nonzero;"/><path d="M37.552,772.988l10.912,-15.247l-10.939,16.921l-0.029,1.751c-0.763,-0.017 -1.519,-0.053 -2.267,-0.104l1.177,-22.48l-0.01,-0.174l0.02,-0.033l0.111,-2.123l-10.966,-16.963l11.001,15.371l0.025,0.451l0.889,-16.985l-9.388,-17.528l9.503,14.547l0.925,-35.212l0.003,-0.12l0,0.116l-0.154,27.767l9.347,-11.008l-9.385,13.4l-0.247,15.207l8.726,-14.594l-8.763,16.832l-0.138,8.454l12.669,-20.313l-12.716,23.263l-0.306,18.804Z" style="fill:#3f3d56;fill-rule:nonzero;"/><path d="M210.773,740.29l6.382,-4.741c0,0 4.224,23.597 -0.489,27.132c-4.714,3.536 -22.391,9.428 -22.391,16.499c0,7.07 -40.068,16.498 -41.246,5.892c-1.179,-10.606 3.535,-16.498 3.535,-16.498c0,0 18.855,-18.856 21.212,-22.391c2.357,-3.536 8.25,-10.606 8.25,-10.606l24.747,4.713Z" style="fill:#2f2e41;fill-rule:nonzero;"/><path d="M116.496,446.854c0,0 0.177,1.037 0.483,2.934c0.283,1.685 0.672,4.066 1.144,7c4.949,30.204 19.385,119.119 18.407,122.053c-1.178,3.536 -9.427,16.499 0,20.034c0.908,0.342 1.886,1.45 2.935,3.194c2.024,3.756 3.693,7.694 4.984,11.761c5.622,16.31 11.632,42.413 15.108,60.49c1.521,7.943 2.558,14.33 2.864,17.677c0.106,0.774 0.118,1.557 0.035,2.334c-1.178,4.713 7.071,21.212 10.606,25.926c3.536,4.713 9.428,9.427 8.25,14.141c-1.179,4.714 29.461,17.677 32.997,9.428c3.535,-8.249 3.535,-12.963 4.713,-15.32c1.179,-2.357 2.357,-18.855 -3.535,-21.212c-5.892,-2.357 -2.357,-43.603 -8.249,-51.853c-1.968,-2.746 -4.973,-12.044 -8.12,-23.227c-1.237,-4.384 -2.486,-9.051 -3.712,-13.729c-4.973,-19.174 -9.38,-38.465 -9.38,-38.465l1.178,-137.88l-64.815,-8.249l-1.662,3.665l-3.311,7.271l-0.92,2.027Z" style="fill:#2f2e41;fill-rule:nonzero;"/><path d="M112.961,673.118c0,0 -9.428,-9.428 -14.142,0c-4.713,9.428 -9.427,45.96 -17.676,54.209c-8.25,8.25 -18.856,49.496 -7.071,51.853c11.784,2.357 24.747,-3.536 25.926,-10.606c1.178,-7.071 25.926,-43.604 25.926,-47.139c0,-3.535 -16.498,-16.498 -16.498,-16.498l3.535,-31.819Z" style="fill:#2f2e41;fill-rule:nonzero;"/><path d="M257.912,382.038c0,0 -15.32,137.88 -18.856,150.843c-3.535,12.963 -22.39,62.459 -28.283,70.708c-5.892,8.249 -43.603,75.421 -48.317,78.957c-4.713,3.535 -14.141,12.963 -14.141,12.963c0,0 -17.677,17.677 -20.034,21.212c-2.357,3.536 -22.391,-7.071 -23.569,-14.141c-1.179,-7.071 1.178,-18.856 2.357,-23.57c1.178,-4.713 -2.357,-11.784 1.178,-15.32c3.536,-3.535 21.212,-21.212 21.212,-29.461c0,-8.249 30.64,-56.566 42.425,-67.172c11.785,-10.606 9.428,-28.283 9.428,-28.283l0,-71.886l-64.816,-20.034c0,0 3.536,-56.566 11.785,-56.566c8.249,0 116.668,-18.856 129.631,-8.25Z" style="fill:#2f2e41;fill-rule:nonzero;"/><circle cx="162.456" cy="146.346" r="38.889" style="fill:#9f616a;"/><path d="M175.419,176.986c0,0 4.714,17.677 10.607,22.391c5.892,4.714 -15.32,24.748 -15.32,24.748l-40.068,2.356l-7.071,-22.39c0,0 12.963,-25.926 9.428,-42.425c-3.536,-16.498 42.424,15.32 42.424,15.32Z" style="fill:#9f616a;fill-rule:nonzero;"/><path d="M191.918,197.02c0,0 -10.606,1.178 -12.963,4.714c-2.357,3.535 -18.856,14.141 -31.819,11.784c-12.963,-2.357 -21.212,-5.892 -23.569,-4.713c-2.357,1.178 -7.071,25.926 -7.071,25.926l12.963,37.71l-2.356,103.705l-3.536,28.283c0,0 -7.071,-9.428 21.212,-3.535c28.283,5.892 64.816,-4.714 76.6,-5.893c11.785,-1.178 31.819,-4.713 32.997,-11.784c1.179,-7.071 -3.535,-32.997 -3.535,-32.997l-18.855,-78.957l-11.785,-42.425l-28.283,-31.818Z" style="fill:#ef233c;fill-rule:nonzero;"/><path d="M180.771,191.701c0,0 9.968,-5.287 13.504,-0.573c3.535,4.713 48.317,11.784 48.317,15.32c0,3.535 9.427,98.99 7.07,107.24c-2.356,8.249 4.714,17.677 4.714,17.677l8.25,35.353c0,0 22.39,67.173 12.963,69.53c-9.428,2.356 -17.677,0 -21.213,0c-3.535,0 -2.357,-44.782 -11.784,-56.567c-9.428,-11.784 -22.391,-41.246 -24.748,-47.138c-2.357,-5.892 -31.818,-87.206 -30.64,-96.634c1.178,-9.427 -6.433,-44.208 -6.433,-44.208Z" style="fill:#d0cde1;fill-rule:nonzero;"/><path d="M131.816,197.02c0,0 -9.427,0 -10.606,2.357c-1.178,2.357 -12.963,17.677 -17.677,21.212c-4.714,3.536 -21.212,18.856 -21.212,22.391c0,3.535 34.175,29.461 34.175,29.461c0,0 14.142,69.53 7.071,93.099c-7.071,23.569 -17.677,80.135 -12.963,83.671c4.714,3.535 15.32,4.713 15.32,0c0,-4.714 7.071,-55.388 12.963,-65.994c5.892,-10.606 23.569,-77.779 16.499,-96.634c-7.071,-18.855 -23.57,-89.563 -23.57,-89.563Z" style="fill:#d0cde1;fill-rule:nonzero;"/><path d="M287.373,313.688c0,0 1.179,36.532 -11.784,55.387c-12.963,18.856 -21.213,40.068 -21.213,40.068c0,0 -21.212,-5.892 -24.747,-12.963c-3.536,-7.071 -25.927,-1.179 -25.927,-3.536c0,-2.356 27.105,-14.141 29.462,-16.498c2.357,-2.357 10.606,-2.357 15.32,-7.071c4.714,-4.714 5.892,-15.32 5.892,-15.32l4.714,-30.64l28.283,-9.427Z" style="fill:#9f616a;fill-rule:nonzero;"/><path d="M189.241,122.368c2.992,-0.272 6.078,-0.571 8.722,-1.997c5.924,-3.195 7.495,-12.294 2.985,-17.291c-1.243,-1.271 -2.634,-2.389 -4.143,-3.331l-8.958,-6.097c-3.962,-2.697 -8.017,-5.438 -12.638,-6.709c-4.179,-1.15 -8.594,-1.032 -12.92,-0.763c-8.399,0.522 -16.849,1.601 -24.749,4.5c-7.899,2.9 -15.268,7.751 -20.052,14.674c-7.585,10.974 -7.689,25.775 -3.512,38.444c4.178,12.669 12.113,23.701 19.932,34.51l4.056,-19.795c0.362,-1.763 0.829,-3.696 2.295,-4.739c3.645,-2.593 8.103,2.731 12.576,2.697c2.874,-0.022 5.287,-2.386 6.376,-5.046c1.09,-2.66 1.161,-5.605 1.413,-8.468c0.534,-6.065 2.654,-14.502 8.396,-17.847c5.352,-3.116 14.206,-2.196 20.221,-2.742Z" style="fill:#2f2e41;fill-rule:nonzero;"/><path d="M187.06,447.805c0,0 -3.981,115.127 -6.338,118.662c-2.356,3.536 0,-119.024 0,-119.024l6.338,0.362Z" style="fill-opacity:0.1;fill-rule:nonzero;"/><path d="M233.164,206.448l9.428,0c0,0 40.067,54.209 35.354,57.744c-4.714,3.536 0,12.963 0,12.963l9.427,17.677c0,0 11.785,10.606 8.249,12.963c-3.535,2.357 -8.249,11.785 -8.249,11.785c0,0 -23.569,-3.536 -30.64,10.606l-15.284,-19.296l-8.285,-104.442Z" style="fill:#d0cde1;fill-rule:nonzero;"/><path d="M236.496,223.884l-32.35,13.359l24.894,60.286l32.351,-13.359l-24.895,-60.286Z" style="fill:#2f2e41;"/><path d="M227.796,247.355c3.571,-1.475 7.57,-0.009 8.924,3.271c1.355,3.281 -0.445,7.141 -4.016,8.616c-3.57,1.475 -7.569,0.008 -8.924,-3.272c-1.355,-3.28 0.445,-7.141 4.016,-8.615Z" style="fill:#ef233c;"/><path d="M209.595,300.725c0,0 -84.849,70.707 -98.991,48.316c-14.141,-22.39 15.32,-41.246 15.32,-41.246c0,0 25.926,1.179 55.388,-17.677l29.461,-12.963c0,0 26.896,-38.399 36.062,-23.777c9.165,14.622 -15.645,40.071 -37.24,47.347Z" style="fill:#9f616a;fill-rule:nonzero;"/><path d="M95.284,238.266l-12.963,4.714l0,35.354l-4.714,7.071c0,0 1.179,14.141 4.714,17.676c3.535,3.536 10.606,2.357 8.249,10.607c-1.416,5.378 -1.816,10.973 -1.178,16.498c0.637,5.525 21.212,27.105 22.391,23.569c1.178,-3.535 17.676,-47.138 20.033,-47.138c2.357,0 -23.569,-68.351 -23.569,-68.351l-12.963,0Z" style="fill:#d0cde1;fill-rule:nonzero;"/><path d="M250.252,416.803c0,0 12.185,-11.785 6.092,-12.374c-6.092,-0.589 -27.305,-12.374 -30.84,-6.481c-3.535,5.892 24.748,18.855 24.748,18.855Z" style="fill:#2f2e41;fill-rule:nonzero;"/><ellipse cx="482" cy="183" rx="17" ry="9" style="fill:#57b894;"/><path d="M547,213c-38.333,-14.477 -76.667,-14.477 -115,0l0,-47c37.494,-11.314 77.506,-11.314 115,0l0,47Z" style="fill:none;fill-rule:nonzero;stroke:#3f3d56;stroke-width:2px;"/><path d="M531,203.28c-27.667,-10.449 -55.333,-10.449 -83,0l0,-33.921c27.061,-8.166 55.939,-8.166 83,0l0,33.921Z" style="fill:none;fill-rule:nonzero;stroke:#3f3d56;stroke-width:2px;"/><ellipse cx="488" cy="179" rx="17" ry="9" style="fill:none;stroke:#3f3d56;stroke-width:2px;"/><path d="M490.9,230.728c9.193,-1.877 17.463,0.551 18.457,5.418c0.993,4.867 -5.664,10.342 -14.857,12.218c-9.193,1.876 -17.463,-0.552 -18.456,-5.419c-0.994,-4.867 5.663,-10.341 14.856,-12.217Z" style="fill:#57b894;"/><path d="M562.387,255.941c-40.455,-6.519 -78.014,1.147 -112.678,22.997l-9.398,-46.05c34.474,-18.583 73.678,-26.585 112.677,-22.997l9.398,46.05Z" style="fill:none;fill-rule:nonzero;stroke:#3f3d56;stroke-width:2px;"/><path d="M544.766,249.617c-29.197,-4.705 -56.305,0.828 -81.323,16.598l-6.784,-33.236c24.881,-13.412 53.176,-19.187 81.323,-16.598l6.784,33.236Z" style="fill:none;fill-rule:nonzero;stroke:#3f3d56;stroke-width:2px;"/><path d="M495.979,225.608c9.193,-1.876 17.463,0.552 18.457,5.419c0.993,4.867 -5.664,10.342 -14.857,12.218c-9.193,1.876 -17.463,-0.552 -18.457,-5.419c-0.993,-4.867 5.664,-10.341 14.857,-12.218Z" style="fill:none;stroke:#3f3d56;stroke-width:2px;"/><path d="M472.216,294.305c0.345,-4.955 8.224,-8.45 17.583,-7.798c9.36,0.651 16.68,5.203 16.335,10.158c-0.345,4.955 -8.224,8.45 -17.584,7.798c-9.36,-0.651 -16.679,-5.203 -16.334,-10.158Z" style="fill:#57b894;"/><path d="M551.935,329.925c-37.235,-17.104 -75.476,-19.765 -114.722,-7.983l3.262,-46.887c38.189,-8.684 78.105,-5.906 114.723,7.983l-3.263,46.887Z" style="fill:none;fill-rule:nonzero;stroke:#3f3d56;stroke-width:2px;"/><path d="M536.649,319.118c-26.875,-12.345 -54.475,-14.265 -82.8,-5.762l2.355,-33.84c27.562,-6.267 56.371,-4.263 82.8,5.762l-2.355,33.84Z" style="fill:none;fill-rule:nonzero;stroke:#3f3d56;stroke-width:2px;"/><path d="M478.479,290.731c0.345,-4.955 8.224,-8.449 17.584,-7.798c9.36,0.651 16.679,5.203 16.334,10.158c-0.345,4.956 -8.224,8.45 -17.584,7.799c-9.36,-0.652 -16.679,-5.204 -16.334,-10.159Z" style="fill:none;stroke:#3f3d56;stroke-width:2px;"/><path d="M414.922,214.092c0,0 -73.496,-10.055 -125.982,20.703" style="fill:none;fill-rule:nonzero;stroke:#3f3d56;stroke-width:2px;"/><path d="M290.708,224.459l1.909,0.604l-2.984,9.399l9.594,2.289l-0.467,1.947l-11.683,-2.791l3.631,-11.448Z" style="fill:#3f3d56;fill-rule:nonzero;"/></svg>